<?xml version="1.0" encoding="UTF-8" standalone="no"?>
<!-- Created with Inkscape (http://www.inkscape.org/) -->

<svg
   xmlns:dc="http://purl.org/dc/elements/1.1/"
   xmlns:cc="http://creativecommons.org/ns#"
   xmlns:rdf="http://www.w3.org/1999/02/22-rdf-syntax-ns#"
   xmlns:svg="http://www.w3.org/2000/svg"
   xmlns="http://www.w3.org/2000/svg"
   xmlns:sodipodi="http://sodipodi.sourceforge.net/DTD/sodipodi-0.dtd"
   xmlns:inkscape="http://www.inkscape.org/namespaces/inkscape"
   width="189.90039mm"
   height="189.81549mm"
   viewBox="0 0 189.90039 189.81549"
   version="1.1"
   id="svg8"
   inkscape:version="0.92.3 (2405546, 2018-03-11)"
   sodipodi:docname="zorgit_logo.svg">
  <defs
     id="defs2">
    <inkscape:path-effect
       fuse_tolerance="0"
       vertical_pattern="false"
       prop_units="false"
       tang_offset="0"
       normal_offset="0"
       spacing="0"
       scale_y_rel="false"
       prop_scale="1"
       copytype="single_stretched"
       pattern="M 0,5 C 0,2.24 2.24,0 5,0 7.76,0 10,2.24 10,5 10,7.76 7.76,10 5,10 2.24,10 0,7.76 0,5 Z"
       is_visible="true"
       id="path-effect1782"
       effect="skeletal" />
    <inkscape:path-effect
       is_visible="true"
       id="path-effect1780"
       effect="spiro" />
    <inkscape:path-effect
       fuse_tolerance="0"
       vertical_pattern="false"
       prop_units="false"
       tang_offset="0"
       normal_offset="0"
       spacing="0"
       scale_y_rel="false"
       prop_scale="1"
       copytype="single_stretched"
       pattern="M 0,5 C 0,2.24 2.24,0 5,0 7.76,0 10,2.24 10,5 10,7.76 7.76,10 5,10 2.24,10 0,7.76 0,5 Z"
       is_visible="true"
       id="path-effect1776"
       effect="skeletal" />
    <inkscape:path-effect
       is_visible="true"
       id="path-effect1774"
       effect="spiro" />
    <inkscape:path-effect
       fuse_tolerance="0"
       vertical_pattern="false"
       prop_units="false"
       tang_offset="0"
       normal_offset="0"
       spacing="0"
       scale_y_rel="false"
       prop_scale="1"
       copytype="single_stretched"
       pattern="M 0,5 C 0,2.24 2.24,0 5,0 7.76,0 10,2.24 10,5 10,7.76 7.76,10 5,10 2.24,10 0,7.76 0,5 Z"
       is_visible="true"
       id="path-effect1770"
       effect="skeletal" />
    <inkscape:path-effect
       is_visible="true"
       id="path-effect1768"
       effect="spiro" />
    <inkscape:path-effect
       is_visible="true"
       id="path-effect1760"
       effect="spiro" />
    <inkscape:path-effect
       is_visible="true"
       id="path-effect1758"
       effect="spiro" />
    <inkscape:path-effect
       fuse_tolerance="0"
       vertical_pattern="false"
       prop_units="false"
       tang_offset="0"
       normal_offset="0"
       spacing="0"
       scale_y_rel="false"
       prop_scale="1"
       copytype="single_stretched"
       pattern="M 0,5 C 0,2.24 2.24,0 5,0 7.76,0 10,2.24 10,5 10,7.76 7.76,10 5,10 2.24,10 0,7.76 0,5 Z"
       is_visible="true"
       id="path-effect1756"
       effect="skeletal" />
    <inkscape:path-effect
       fuse_tolerance="0"
       vertical_pattern="false"
       prop_units="false"
       tang_offset="0"
       normal_offset="0"
       spacing="0"
       scale_y_rel="false"
       prop_scale="1"
       copytype="single_stretched"
       pattern="M 0,5 C 0,2.24 2.24,0 5,0 7.76,0 10,2.24 10,5 10,7.76 7.76,10 5,10 2.24,10 0,7.76 0,5 Z"
       is_visible="true"
       id="path-effect1707"
       effect="skeletal" />
    <inkscape:path-effect
       fuse_tolerance="0"
       vertical_pattern="false"
       prop_units="false"
       tang_offset="0"
       normal_offset="0"
       spacing="0"
       scale_y_rel="false"
       prop_scale="1"
       copytype="single_stretched"
       pattern="m -2.1213203,6.1490485 c 0,-2.76 2.23999996,-5 5,-5 2.76,0 5,2.24 5,5 0,2.76 -2.24,5.0000005 -5,5.0000005 -2.76000004,0 -5,-2.2400005 -5,-5.0000005 z"
       is_visible="true"
       id="path-effect1135"
       effect="skeletal" />
    <inkscape:path-effect
       is_visible="true"
       id="path-effect1133"
       effect="spiro" />
  </defs>
  <sodipodi:namedview
     id="base"
     pagecolor="#ffffff"
     bordercolor="#666666"
     borderopacity="1.0"
     inkscape:pageopacity="0.0"
     inkscape:pageshadow="2"
     inkscape:zoom="0.70710678"
     inkscape:cx="68.997737"
     inkscape:cy="213.22059"
     inkscape:document-units="mm"
     inkscape:current-layer="layer9"
     showgrid="false"
     inkscape:window-width="1920"
     inkscape:window-height="1137"
     inkscape:window-x="-8"
     inkscape:window-y="-8"
     inkscape:window-maximized="1"
     fit-margin-top="0"
     fit-margin-left="0"
     fit-margin-right="0"
     fit-margin-bottom="0" />
  <metadata
     id="metadata5">
    <rdf:RDF>
      <cc:Work
         rdf:about="">
        <dc:format>image/svg+xml</dc:format>
        <dc:type
           rdf:resource="http://purl.org/dc/dcmitype/StillImage" />
        <dc:title></dc:title>
      </cc:Work>
    </rdf:RDF>
  </metadata>
  <g
     inkscape:groupmode="layer"
     id="layer9"
     inkscape:label="Background"
     transform="matrix(0.35277777,0,0,-0.35277777,195.98134,163.51122)"
     style="display:inline" />
  <g
     inkscape:label="crystal1"
     inkscape:groupmode="layer"
     id="layer1"
     style="display:inline"
     transform="translate(-3.6161165,27.850404)" />
  <g
     inkscape:groupmode="layer"
     id="layer2"
     inkscape:label="crystal2"
     style="display:inline"
     transform="translate(-3.6161165,27.850404)" />
  <g
     inkscape:groupmode="layer"
     id="layer3"
     inkscape:label="crystal3"
     style="display:inline"
     transform="translate(-3.6161165,27.850404)" />
  <g
     inkscape:groupmode="layer"
     id="layer4"
     inkscape:label="crystal4"
     style="display:inline"
     transform="translate(-3.6161165,27.850404)" />
  <g
     inkscape:groupmode="layer"
     id="layer7"
     inkscape:label="crystal5"
     style="display:inline"
     transform="translate(-3.6161165,27.850404)" />
  <g
     inkscape:groupmode="layer"
     id="layer8"
     inkscape:label="crystal6"
     style="display:inline"
     transform="translate(-3.6161165,27.850404)">
    <g
       id="g4910">
      <path
         sodipodi:nodetypes="ccccccccccccccc"
         inkscape:connector-curvature="0"
         d="M 111.02725,61.403379 112.83878,28.329552 98.324199,13.967345 86.795788,26.28937 89.054217,61.909717 98.027789,106.30319 102.73172,68.685006 Z M 99.3599,95.387055 100.65513,36.041549 98.324199,13.967345 M 112.83878,28.329552 100.6604,36.278567 M 86.795788,26.28937 100.6604,36.278567"
         style="display:inline;fill:none;stroke:none;stroke-width:0.26458332px;stroke-linecap:butt;stroke-linejoin:miter;stroke-opacity:1"
         id="path4768-3" />
      <path
         sodipodi:nodetypes="ccccccccccccc"
         inkscape:connector-curvature="0"
         d="m 102.73172,68.685004 -4.703931,37.618186 4.870981,24.09435 h 5.89329 l 13.84456,-58.184575 -5.89329,-15.996081 z m 14.01161,-12.468121 -5.89329,30.214821 -8.84602,39.500996 m 0.7277,-57.247696 8.11832,17.7467 11.78658,-14.218739"
         style="display:inline;fill:none;stroke:none;stroke-width:0.26458332px;stroke-linecap:butt;stroke-linejoin:miter;stroke-opacity:1"
         id="path4801" />
      <path
         sodipodi:nodetypes="cccccccccccc"
         inkscape:connector-curvature="0"
         d="M 86.717184,50.27604 74.744791,64.365102 64.624479,64.497396 m 6.085416,-26.259898 4.034896,26.127604 19.09961,65.897788 M 70.709895,38.237498 86.717186,50.27604 102.89877,130.39754 H 88.701563 L 64.624479,64.497396 Z"
         style="display:inline;fill:#ffffff;stroke:none;stroke-width:0.26458332px;stroke-linecap:butt;stroke-linejoin:miter;stroke-opacity:1"
         id="path4781" />
      <path
         sodipodi:nodetypes="cccccccccccc"
         inkscape:connector-curvature="0"
         d="m 52.718229,88.376037 13.890624,-3.902602 4.233335,-2.778123 m -12.23698,-7.342189 8.003645,10.120312 18.91771,37.438545 m -26.921355,-47.558857 -5.886979,14.022916 25.796875,39.749641 9.326563,0.004 -19.116146,-52.387503 z"
         style="display:inline;fill:none;stroke:none;stroke-width:0.26458332px;stroke-linecap:butt;stroke-linejoin:miter;stroke-opacity:1"
         id="path4793" />
      <path
         sodipodi:nodetypes="ccccccccccccccccc"
         inkscape:connector-curvature="0"
         d="m 115.38694,57.386185 -3.93121,-4.795041 m 25.33385,9.723437 -13.95677,4.034896 -4.36562,-5.357811 m 8.20208,-18.851564 -3.83646,24.209375 -0.99218,3.902606 m -9.98803,-22.377237 14.81667,-5.734744 10.12031,20.174481 -19.97604,64.095317 -7.40833,1.25677 13.23141,-55.453705 -5.89329,-15.996081 -5.71608,5.186495 z"
         style="display:inline;fill:none;stroke:none;stroke-width:0.26499999;stroke-linecap:butt;stroke-linejoin:miter;stroke-miterlimit:4;stroke-dasharray:none;stroke-opacity:1"
         id="path4791" />
      <path
         transform="scale(0.26458333)"
         inkscape:connector-curvature="0"
         id="path4798"
         d="m 376.66377,340.40955 c 0.095,-3.88909 1.1257,-51.13453 2.29037,-104.98987 1.16467,-53.85534 2.15107,-97.94131 2.192,-97.96882 7.77451,-5.22671 44.24591,-28.75931 44.37375,-28.63147 0.24229,0.24229 -6.23269,120.22637 -6.56732,121.69525 -0.20727,0.9098 -3.11802,3.66329 -15.45815,14.623 -8.36154,7.42618 -15.35199,13.64179 -15.53434,13.81245 -0.18235,0.17067 -2.8375,20.15985 -5.90032,44.42042 l -5.56877,44.11011 z"
         style="display:inline;opacity:1;fill:#53dcdc;fill-opacity:1;fill-rule:nonzero;stroke:none;stroke-width:0.33941126;stroke-linecap:round;stroke-linejoin:miter;stroke-miterlimit:8;stroke-dasharray:none;stroke-dashoffset:0;stroke-opacity:1;paint-order:fill markers stroke" />
      <path
         transform="scale(0.26458333)"
         inkscape:connector-curvature="0"
         id="path4800"
         d="m 456.70421,240.46735 c -3.79186,-4.65203 -7.21249,-8.908 -7.6014,-9.45771 -0.38891,-0.54971 -2.21855,-5.15294 -4.06587,-10.22942 -1.84731,-5.07647 -3.46204,-9.23241 -3.58827,-9.23541 -0.12623,-0.003 -1.29271,0.95804 -2.59218,2.13567 -1.29947,1.17763 -2.48869,2.09245 -2.64273,2.03294 -0.15403,-0.0595 -3.323,-3.81852 -7.04214,-8.35334 -6.42273,-7.83134 -6.7613,-8.31928 -6.74634,-9.72272 0.009,-0.81268 0.22504,-4.73282 0.48082,-8.71143 0.36346,-5.65332 0.58014,-7.30642 0.99174,-7.56605 0.56941,-0.35918 53.79564,-21.02972 53.91495,-20.93801 0.14034,0.10788 -13.71617,87.36529 -13.96335,87.93021 -0.18829,0.43033 -1.97219,-1.53818 -7.14523,-7.88473 z"
         style="display:inline;opacity:1;fill:#67ebbc;fill-opacity:1;fill-rule:nonzero;stroke:none;stroke-width:0.33941126;stroke-linecap:round;stroke-linejoin:miter;stroke-miterlimit:8;stroke-dasharray:none;stroke-dashoffset:0;stroke-opacity:1;paint-order:fill markers stroke" />
      <path
         transform="scale(0.26458333)"
         inkscape:connector-curvature="0"
         id="path4802"
         d="m 465.18949,249.4443 c 0,-0.5436 13.80814,-87.53985 13.9107,-87.64241 0.0488,-0.0488 8.39192,16.4225 18.54027,36.60287 l 18.45156,36.69159 -24.83255,7.18328 c -13.6579,3.9508 -25.11097,7.26037 -25.45126,7.35461 -0.3403,0.0942 -0.61872,0.009 -0.61872,-0.18994 z"
         style="display:inline;opacity:1;fill:#b8f9d0;fill-opacity:1;fill-rule:nonzero;stroke:none;stroke-width:0.33941126;stroke-linecap:round;stroke-linejoin:miter;stroke-miterlimit:8;stroke-dasharray:none;stroke-dashoffset:0;stroke-opacity:1;paint-order:fill markers stroke" />
      <path
         transform="scale(0.26458333)"
         inkscape:connector-curvature="0"
         id="path4804"
         d="m 414.73706,480.88299 c 0.10702,-0.45092 11.28358,-47.44215 24.83679,-104.42496 l 24.64221,-103.6051 -1.44367,-3.92332 -1.44366,-3.92332 1.72886,-6.79189 c 0.95087,-3.73554 1.77977,-6.83474 1.84199,-6.88711 0.32153,-0.27061 50.64227,-14.65573 50.78124,-14.51676 0.0899,0.0899 -16.68295,54.21254 -37.2731,120.27242 l -37.43664,120.10888 -12.02082,2.03853 c -6.61144,1.12118 -12.55788,2.13617 -13.2143,2.2555 -1.11005,0.20182 -1.17989,0.15967 -0.9989,-0.60287 z"
         style="display:inline;opacity:1;fill:#67ebbc;fill-opacity:1;fill-rule:nonzero;stroke:none;stroke-width:0.33941126;stroke-linecap:round;stroke-linejoin:miter;stroke-miterlimit:8;stroke-dasharray:none;stroke-dashoffset:0;stroke-opacity:1;paint-order:fill markers stroke" />
      <path
         transform="scale(0.26458333)"
         inkscape:connector-curvature="0"
         id="path4806"
         d="m 420.36752,323.08543 c 4.07014,-21.64013 21.02602,-107.54909 21.19247,-107.3741 0.12945,0.13608 4.94502,13.03924 10.70128,28.67369 9.08479,24.675 10.40173,28.50083 9.97951,28.99138 -0.26752,0.31081 -9.84333,11.86114 -21.27958,25.6674 -14.89145,17.97752 -20.73655,24.80125 -20.59368,24.04163 z"
         style="display:inline;opacity:1;fill:#a0ebfa;fill-opacity:1;fill-rule:nonzero;stroke:none;stroke-width:0.33941126;stroke-linecap:round;stroke-linejoin:miter;stroke-miterlimit:8;stroke-dasharray:none;stroke-dashoffset:0;stroke-opacity:1;paint-order:fill markers stroke" />
      <path
         transform="scale(0.26458333)"
         inkscape:connector-curvature="0"
         id="path4808"
         d="m 404.0616,292.47654 c -8.03412,-17.56191 -14.6768,-32.11138 -14.76152,-32.33216 -0.0847,-0.22079 2.27683,-2.53657 5.24791,-5.14619 2.97107,-2.60961 10.02543,-8.80178 15.67635,-13.76037 5.65092,-4.95858 14.62197,-12.96011 19.93567,-17.78117 5.31369,-4.82105 9.71872,-8.70809 9.78896,-8.63785 0.10235,0.10234 -20.85125,108.18436 -21.18606,109.28111 -0.0516,0.16906 -6.6672,-14.06146 -14.70131,-31.62337 z"
         style="display:inline;opacity:1;fill:#64cdf6;fill-opacity:1;fill-rule:nonzero;stroke:none;stroke-width:0.33941126;stroke-linecap:round;stroke-linejoin:miter;stroke-miterlimit:8;stroke-dasharray:none;stroke-dashoffset:0;stroke-opacity:1;paint-order:fill markers stroke" />
      <path
         transform="scale(0.26458333)"
         inkscape:connector-curvature="0"
         id="path4810"
         d="m 378.31889,436.84006 -7.14432,-35.61933 8.73854,-69.59312 8.73853,-69.59312 14.4583,31.58613 c 7.95206,17.37238 14.60781,31.98388 14.79057,32.47002 0.26109,0.6945 -3.12499,16.33702 -15.80395,73.00877 -8.87492,39.66869 -16.24808,72.40279 -16.38479,72.74243 -0.14419,0.35822 -3.24863,-14.33979 -7.39288,-35.00178 z"
         style="display:inline;opacity:1;fill:#2ca6de;fill-opacity:1;fill-rule:nonzero;stroke:none;stroke-width:0.33941126;stroke-linecap:round;stroke-linejoin:miter;stroke-miterlimit:8;stroke-dasharray:none;stroke-dashoffset:0;stroke-opacity:1;paint-order:fill markers stroke" />
      <path
         transform="scale(0.26458333)"
         inkscape:connector-curvature="0"
         id="path4812"
         d="m 389.35707,491.46524 c -0.67404,-2.89116 -3.00999,-14.85954 -3.00999,-15.42186 0,-0.68277 32.66069,-146.92197 33.15541,-148.45432 0.24363,-0.75464 42.20885,-51.7055 42.4339,-51.5199 0.0581,0.0479 -6.4913,27.74934 -14.55425,61.5587 -16.47524,69.08358 -34.02684,142.87888 -35.66395,149.94829 l -1.08484,4.68458 h -10.54541 -10.54541 z"
         style="display:inline;opacity:1;fill:#64cdf6;fill-opacity:1;fill-rule:nonzero;stroke:none;stroke-width:0.33941126;stroke-linecap:round;stroke-linejoin:miter;stroke-miterlimit:8;stroke-dasharray:none;stroke-dashoffset:0;stroke-opacity:1;paint-order:fill markers stroke" />
      <path
         transform="scale(0.26458333)"
         inkscape:connector-curvature="0"
         id="path4814"
         d="m 353.72443,315.21865 -16.53597,-81.93578 -4.19236,-66.11448 c -2.3058,-36.36297 -4.15361,-66.1593 -4.10625,-66.21406 0.0474,-0.0548 11.48317,8.11244 25.41292,18.14935 l 25.3268,18.24894 0.0135,1.29608 c 0.007,0.71284 -1.02491,50.53723 -2.29415,110.72085 l -2.30772,109.42478 -2.16341,18.03122 c -1.18987,9.91717 -2.26556,18.54819 -2.39042,19.18005 -0.16385,0.82919 -4.82768,-21.64752 -16.76298,-80.78695 z"
         style="display:inline;opacity:1;fill:#3db9c9;fill-opacity:1;fill-rule:nonzero;stroke:none;stroke-width:0.33941126;stroke-linecap:round;stroke-linejoin:miter;stroke-miterlimit:8;stroke-dasharray:none;stroke-dashoffset:0;stroke-opacity:1;paint-order:fill markers stroke" />
      <path
         transform="scale(0.26458333)"
         inkscape:connector-curvature="0"
         id="path4817"
         d="m 319.37832,368.0751 c -19.79246,-68.30209 -36.01009,-124.28839 -36.03917,-124.41398 -0.0928,-0.40083 43.77876,-51.87668 44.00173,-51.62857 0.11769,0.13097 2.06633,9.46587 4.33031,20.74423 5.56385,27.71717 56.03576,277.68668 56.27063,278.68846 l 0.1865,0.79549 h -16.38185 -16.38185 z"
         style="display:inline;opacity:1;fill:#64cdf6;fill-opacity:1;fill-rule:nonzero;stroke:none;stroke-width:0.33941126;stroke-linecap:round;stroke-linejoin:miter;stroke-miterlimit:8;stroke-dasharray:none;stroke-dashoffset:0;stroke-opacity:1;paint-order:fill markers stroke" />
      <path
         transform="scale(0.26458333)"
         inkscape:connector-curvature="0"
         id="path4819"
         d="m 275.72349,195.01216 c -3.95465,-25.62015 -7.2763,-47.12257 -7.38145,-47.78315 -0.18235,-1.14556 1.13041,-0.20807 28.41295,20.29047 15.73227,11.82033 28.90084,21.77035 29.26349,22.11116 0.63695,0.59858 -0.0584,1.46509 -20.4582,25.4947 -11.61465,13.68128 -21.46157,25.23367 -21.88204,25.67199 l -0.76448,0.79694 z"
         style="display:inline;opacity:1;fill:#a0ebfa;fill-opacity:1;fill-rule:nonzero;stroke:none;stroke-width:0.33941126;stroke-linecap:round;stroke-linejoin:miter;stroke-miterlimit:8;stroke-dasharray:none;stroke-dashoffset:0;stroke-opacity:1;paint-order:fill markers stroke" />
      <path
         transform="scale(0.26458333)"
         inkscape:connector-curvature="0"
         id="path4821"
         d="m 245.27042,242.79189 c -0.005,-0.17415 4.88509,-21.46421 10.86656,-47.31125 8.40489,-36.31902 10.93722,-46.76003 11.14747,-45.96194 0.33833,1.28427 14.44474,92.86438 14.32267,92.98408 -0.27524,0.26989 -36.32921,0.55675 -36.3367,0.28911 z"
         style="display:inline;opacity:1;fill:#64cdf6;fill-opacity:1;fill-rule:nonzero;stroke:none;stroke-width:0.33941126;stroke-linecap:round;stroke-linejoin:miter;stroke-miterlimit:8;stroke-dasharray:none;stroke-dashoffset:0;stroke-opacity:1;paint-order:fill markers stroke" />
      <path
         transform="scale(0.26458333)"
         inkscape:connector-curvature="0"
         id="path4823"
         d="m 335.47009,491.46524 c -0.16575,-0.43753 -17.6803,-48.36611 -38.92123,-106.50796 -21.24093,-58.14186 -41.46426,-113.49685 -44.94074,-123.0111 -3.47648,-9.51426 -6.2736,-17.34592 -6.21581,-17.4037 0.0578,-0.0578 8.31476,-0.2142 18.34885,-0.3476 l 18.2438,-0.24254 0.72245,2.44344 c 1.70153,5.75483 70.72478,244.01172 70.94565,244.89268 l 0.24377,0.97227 h -9.06269 -9.06269 z"
         style="display:inline;opacity:1;fill:#2ca6de;fill-opacity:1;fill-rule:nonzero;stroke:none;stroke-width:0.33941126;stroke-linecap:round;stroke-linejoin:miter;stroke-miterlimit:8;stroke-dasharray:none;stroke-dashoffset:0;stroke-opacity:1;paint-order:fill markers stroke" />
      <path
         transform="scale(0.26458333)"
         inkscape:connector-curvature="0"
         id="path4825"
         d="m 237.56113,300.24379 c -7.84239,-9.93019 -14.20557,-18.10822 -14.14041,-18.17338 0.11646,-0.11646 35.72918,4.72726 35.85211,4.87628 0.0346,0.042 1.81049,4.88565 3.94639,10.76374 l 3.88345,10.68743 -7.56739,4.9573 c -4.16206,2.72652 -7.60066,4.95421 -7.64132,4.95042 -0.0407,-0.004 -6.49044,-8.13159 -14.33283,-18.06179 z"
         style="display:inline;opacity:1;fill:#e2ffcb;fill-opacity:1;fill-rule:nonzero;stroke:none;stroke-width:0.33941126;stroke-linecap:round;stroke-linejoin:miter;stroke-miterlimit:8;stroke-dasharray:none;stroke-dashoffset:0;stroke-opacity:1;paint-order:fill markers stroke" />
      <path
         transform="scale(0.26458333)"
         inkscape:connector-curvature="0"
         id="path4827"
         d="m 200.80555,332.24527 c 0.30268,-1.09966 20.48658,-49.08497 20.77974,-49.40188 0.19659,-0.21252 25.34852,31.05795 28.53624,35.47807 0.38176,0.52935 -1.9287,1.24771 -23.78338,7.39463 -13.31342,3.74458 -24.54643,6.89729 -24.96224,7.00603 -0.61375,0.1605 -0.72109,0.0708 -0.57036,-0.47685 z"
         style="display:inline;opacity:1;fill:#baffa0;fill-opacity:1;fill-rule:nonzero;stroke:none;stroke-width:0.33941126;stroke-linecap:round;stroke-linejoin:miter;stroke-miterlimit:8;stroke-dasharray:none;stroke-dashoffset:0;stroke-opacity:1;paint-order:stroke fill markers" />
      <path
         transform="scale(0.26458333)"
         inkscape:connector-curvature="0"
         id="path4829"
         d="m 307.24382,483.42995 -10.33712,-0.18483 -48.27441,-74.38346 c -26.55093,-40.91091 -48.23011,-74.41613 -48.17597,-74.45604 0.23177,-0.17085 50.93948,-14.33454 51.00306,-14.24619 0.0386,0.0537 13.40018,26.50802 29.69237,58.78744 16.29217,32.27942 32.34697,64.01968 35.67732,70.5339 5.6177,10.98832 6.35199,12.65506 10.16343,23.06936 l 4.10824,11.22532 -6.7599,-0.0803 c -3.71794,-0.0442 -11.4116,-0.16351 -17.09702,-0.26516 z"
         style="display:inline;opacity:1;fill:#99dca3;fill-opacity:1;fill-rule:nonzero;stroke:none;stroke-width:0.33941126;stroke-linecap:round;stroke-linejoin:miter;stroke-miterlimit:8;stroke-dasharray:none;stroke-dashoffset:0;stroke-opacity:1;paint-order:fill markers stroke" />
      <path
         transform="scale(0.26458333)"
         inkscape:connector-curvature="0"
         id="path4831"
         d="m 285.40759,384.38022 c -17.8898,-35.40055 -32.52691,-64.5177 -32.52691,-64.70478 0,-0.48757 14.43912,-9.87249 14.72366,-9.56987 0.3647,0.38788 50.53609,138.05226 50.42656,138.3645 -0.053,0.15113 -14.73351,-28.6893 -32.62331,-64.08985 z"
         style="display:inline;opacity:1;fill:#baffa0;fill-opacity:1;fill-rule:nonzero;stroke:none;stroke-width:0.33941126;stroke-linecap:round;stroke-linejoin:miter;stroke-miterlimit:8;stroke-dasharray:none;stroke-dashoffset:0;stroke-opacity:1;paint-order:fill markers stroke" />
      <path
         transform="scale(0.26458333)"
         inkscape:connector-curvature="0"
         id="path4833"
         d="m 354.42455,117.51755 c -13.76314,-9.91147 -25.0421,-18.130154 -25.06435,-18.263741 -0.0516,-0.309702 41.49527,-44.74529 41.67158,-44.568979 0.176,0.176002 8.6298,80.21414 8.51027,80.57275 -0.0515,0.15446 -11.35436,-7.82855 -25.1175,-17.74003 z"
         style="display:inline;opacity:1;fill:#53dcdc;fill-opacity:1;fill-rule:nonzero;stroke:none;stroke-width:0.33941126;stroke-linecap:round;stroke-linejoin:miter;stroke-miterlimit:8;stroke-dasharray:none;stroke-dashoffset:0;stroke-opacity:1;paint-order:fill markers stroke" />
      <path
         transform="scale(0.26458333)"
         inkscape:connector-curvature="0"
         id="path4835"
         d="m 380.89132,134.17612 c -0.60282,-4.7005 -8.33564,-79.022415 -8.23259,-79.125457 0.12796,-0.127965 52.33958,51.376147 52.49133,51.780037 0.0676,0.17983 -38.00352,25.2839 -43.07869,28.40608 l -0.96768,0.59531 z"
         style="display:inline;opacity:1;fill:#b0f9f9;fill-opacity:1;fill-rule:nonzero;stroke:none;stroke-width:0.33941126;stroke-linecap:round;stroke-linejoin:miter;stroke-miterlimit:8;stroke-dasharray:none;stroke-dashoffset:0;stroke-opacity:1;paint-order:fill markers stroke" />
      <path
         transform="scale(0.26458333)"
         inkscape:connector-curvature="0"
         id="path4837"
         d="m 455.49958,249.21179 c -2.69178,-7.31871 -4.81121,-13.38969 -4.70984,-13.49106 0.15664,-0.15664 11.67301,13.73465 12.39895,14.95587 0.22387,0.37659 -1.84379,9.53667 -2.52574,11.18946 -0.19208,0.46555 -1.67132,-3.15973 -5.16337,-12.65427 z"
         style="display:inline;opacity:1;fill:#00c39f;fill-opacity:1;fill-rule:nonzero;stroke:none;stroke-width:0.33941126;stroke-linecap:round;stroke-linejoin:miter;stroke-miterlimit:8;stroke-dasharray:none;stroke-dashoffset:0;stroke-opacity:1;paint-order:fill markers stroke" />
      <path
         transform="scale(0.26458333)"
         inkscape:connector-curvature="0"
         id="path4839"
         d="m 420.46341,228.95184 c 0.0866,-0.53475 0.50774,-7.03463 0.93579,-14.44419 l 0.77828,-13.47193 1.81295,2.15822 c 0.99713,1.18702 3.9351,4.75569 6.52883,7.93038 3.96929,4.85837 4.63817,5.84541 4.22508,6.23482 -1.74097,1.64118 -14.15999,12.56498 -14.28484,12.56498 -0.0845,0 -0.0827,-0.43753 0.004,-0.97228 z"
         style="display:inline;opacity:1;fill:#00c39f;fill-opacity:1;fill-rule:nonzero;stroke:none;stroke-width:0.33941126;stroke-linecap:round;stroke-linejoin:miter;stroke-miterlimit:8;stroke-dasharray:none;stroke-dashoffset:0;stroke-opacity:1;paint-order:fill markers stroke" />
      <path
         transform="scale(0.26458333)"
         inkscape:connector-curvature="0"
         id="path4841"
         d="m 494.38582,360.38532 c -0.9708,-3.97989 -6.21536,-28.46349 -6.21536,-29.01566 0,-0.57476 6.45827,-21.7585 9.2149,-30.22575 l 0.69754,-2.14254 8.50022,-4.34732 c 4.67512,-2.39103 8.55907,-4.28849 8.63098,-4.21657 0.0719,0.0719 -4.53651,16.03848 -10.24096,35.48124 -7.2687,24.77428 -10.43622,35.08604 -10.58732,34.4666 z"
         style="display:inline;opacity:1;fill:#baffa0;fill-opacity:1;fill-rule:nonzero;stroke:none;stroke-width:0.33941126;stroke-linecap:round;stroke-linejoin:miter;stroke-miterlimit:8;stroke-dasharray:none;stroke-dashoffset:0;stroke-opacity:1;paint-order:fill markers stroke" />
      <path
         transform="scale(0.26458333)"
         inkscape:connector-curvature="0"
         id="path4843"
         d="m 495.94863,361.80562 c 0,-0.41884 20.02949,-68.85666 20.4151,-69.75537 0.18229,-0.42487 2.67168,7.27791 7.65552,23.68807 4.06196,13.37473 7.45091,24.49466 7.53099,24.71098 0.11499,0.31061 -34.81697,21.70378 -35.43915,21.70378 -0.0893,0 -0.16246,-0.15635 -0.16246,-0.34746 z"
         style="display:inline;opacity:1;fill:#e2ffcb;fill-opacity:1;fill-rule:nonzero;stroke:none;stroke-width:0.33941126;stroke-linecap:round;stroke-linejoin:miter;stroke-miterlimit:8;stroke-dasharray:none;stroke-dashoffset:0;stroke-opacity:1;paint-order:fill markers stroke" />
      <path
         transform="scale(0.26458333)"
         inkscape:connector-curvature="0"
         id="path4845"
         d="m 447.23703,461.79493 c 0.0968,-0.25857 9.05108,-28.94885 19.89836,-63.75618 10.84729,-34.80733 19.82006,-63.39866 19.9395,-63.53629 0.11945,-0.13762 1.68129,6.42867 3.47077,14.59177 l 3.2536,14.84199 -22.35052,49.04785 c -21.73168,47.68977 -22.37874,49.05108 -23.36914,49.16441 -0.7316,0.0837 -0.96901,-0.0159 -0.84257,-0.35355 z"
         style="display:inline;opacity:1;fill:#99dca3;fill-opacity:1;fill-rule:nonzero;stroke:none;stroke-width:0.33941126;stroke-linecap:round;stroke-linejoin:miter;stroke-miterlimit:8;stroke-dasharray:none;stroke-dashoffset:0;stroke-opacity:1;paint-order:fill markers stroke" />
      <path
         transform="scale(0.26458333)"
         inkscape:connector-curvature="0"
         id="path4847"
         d="m 450.6938,461.99379 c 0,-0.35264 43.1353,-94.95143 43.96281,-96.41358 0.66706,-1.17864 2.91095,-2.63859 18.06095,-11.75105 9.51459,-5.72286 17.35605,-10.34841 17.42546,-10.27899 0.0694,0.0694 -14.87471,26.7919 -33.20916,59.3833 l -33.33536,59.2571 -6.45235,0.009 c -3.54879,0.005 -6.45235,-0.0876 -6.45235,-0.20585 z"
         style="display:inline;opacity:1;fill:#baffa0;fill-opacity:1;fill-rule:nonzero;stroke:none;stroke-width:0.33941126;stroke-linecap:round;stroke-linejoin:miter;stroke-miterlimit:8;stroke-dasharray:none;stroke-dashoffset:0;stroke-opacity:1;paint-order:fill markers stroke" />
      <path
         inkscape:connector-curvature="0"
         d="m 140.87777,90.267019 -10.04131,6.046517 -1.91823,-8.731245 m 7.75004,-11.159833 -5.83181,19.891081 -11.90625,26.127611 m 17.73806,-46.018692 4.2095,13.844561 -18.1111,32.174131 h -4.69636 l 13.5599,-43.457817 z"
         style="fill:none;stroke:none;stroke-width:0.26458332px;stroke-linecap:butt;stroke-linejoin:miter;stroke-opacity:1"
         id="path4816" />
    </g>
  </g>
  <g
     inkscape:groupmode="layer"
     id="layer5"
     inkscape:label="Cogwheel"
     style="display:inline"
     transform="translate(-3.6161165,27.850404)">
    <g
       id="g4820"
       transform="matrix(1.815242,0,0,1.815242,-81.689506,99.001151)"
       style="opacity:0.98000004">
      <g
         id="g4876"
         transform="translate(45.626297,-71.272519)">
        <path
           inkscape:connector-curvature="0"
           id="path1117"
           d="m 53.701365,1.3912027 c -0.5055,0 -1.011156,0.222969 -1.285156,0.667968 l -2.720703,4.394532 -1.28125,0.125 -3.523438,-3.779297 c -0.142642,-0.152631 -0.319522,-0.252462 -0.505859,-0.324219 -0.0035,-0.0013 -0.0062,-0.0045 -0.0098,-0.0059 -0.0032,-0.0013 -0.0065,-0.0026 -0.0098,-0.0039 -0.0656,-0.02413 -0.130768,-0.04585 -0.199219,-0.06055 -0.110983,-0.02752 -0.224804,-0.04575 -0.339844,-0.04883 -0.629367,-0.01686 -1.279062,0.324453 -1.507812,0.939453 l -1.804688,4.828125 -1.216797,0.36914 -4.162109,-2.996094 c -0.214708,-0.155094 -0.462586,-0.234014 -0.714844,-0.25 -0.76054,-0.0734 -1.582597,0.438185 -1.710937,1.226563 l -0.830079,5.0917973 -1.128906,0.605469 -4.658203,-2.125 C 25.963355,9.9867 25.830077,9.9537 25.695437,9.9380377 24.816799,9.8039277 23.869154,10.545106 23.904421,11.467335 l 0.181641,5.166015 -0.992188,0.814453 -5.03125,-1.185546 c -1.022,-0.240001 -2.060312,0.798313 -1.820312,1.820312 l 1.1875,5.03125 -0.816406,0.990234 -5.166016,-0.179687 c -1.052,-0.04 -1.8657339,1.182672 -1.427734,2.138672 l 2.138671,4.695312 -0.611328,1.142578 -5.0898429,0.828125 c -1.03398,0.17 -1.598376,1.526953 -0.984376,2.376954 l 3.011719,4.18164 -0.378906,1.246094 -4.826172,1.80664 c -0.982,0.366001 -1.269953,1.805485 -0.501953,2.521485 l 3.777344,3.523437 -0.125,1.279297 -4.394532,2.720703 c -0.89,0.55 -0.89,2.022313 0,2.570313 l 4.394601,2.720743 0.125,1.279297 -3.775391,3.523437 c -0.768,0.714 -0.482,2.153485 0.5,2.521485 l 4.828125,1.804687 0.376953,1.246094 -3.009765,4.183594 c -0.614,0.852 -0.05162,2.209 0.984375,2.375 l 5.0898429,0.828125 0.611328,1.144531 -2.138671,4.693359 c -0.3886109,0.846426 0.21688,1.902361 1.085937,2.101561 0.124498,0.0332 0.254751,0.0503 0.388672,0.0449 l 5.126953,-0.17773 0.806641,0.98242 -1.185547,5.0332 c -0.210432,0.89445 0.561213,1.80011 1.443359,1.84766 0.139701,0.0126 0.281247,0.008 0.423828,-0.0254 l 5.029297,-1.18359 0.992188,0.8125 -0.179688,5.16796 c -0.04,1.04601 1.184672,1.86374 2.138672,1.42774 l 4.693359,-2.13867 1.142579,0.61328 0.830078,5.087891 c 0.168,1.036 1.526953,1.59633 2.376953,0.98633 l 4.183594,-3.013671 1.246093,0.3789 1.804688,4.826171 c 0.366,0.98 1.807484,1.268 2.521484,0.5 l 3.523438,-3.77539 1.28125,0.12696 2.71875,4.39453 c 0.548,0.886 2.022265,0.888 2.572265,0 l 2.71875,-4.39453 1.28125,-0.12696 3.521485,3.77539 c 0.714,0.768 2.155484,0.48 2.521484,-0.5 l 1.804688,-4.826171 1.246093,-0.3789 4.183594,3.013671 c 0.85,0.61 2.207,0.0477 2.375,-0.98633 l 0.830078,-5.087891 1.144532,-0.61328 4.693359,2.13867 c 0.954,0.436 2.176673,-0.37971 2.138673,-1.42774 l -0.18164,-5.16796 0.99219,-0.8125 5.03125,1.18359 c 1.022,0.24 2.05833,-0.79445 1.81836,-1.81445 l -1.18555,-5.03321 0.81445,-0.99218 5.16602,0.17968 c 1.042,0.042 1.86573,-1.184668 1.42773,-2.138668 l -2.13867,-4.69336 0.61133,-1.144531 5.089843,-0.828125 c 1.036,-0.166 1.59838,-1.523 0.98438,-2.375 l -3.009773,-4.183594 0.37695,-1.246093 4.828133,-1.804688 c 0.982,-0.368 1.268,-1.807484 0.5,-2.521484 l -3.77539,-3.523438 0.125,-1.279297 4.39453,-2.720703 c 0.89,-0.548 0.89,-2.020312 0,-2.570312 l -4.39453,-2.720703 -0.125,-1.279297 3.77734,-3.523438 c 0.768,-0.716 0.48005,-2.155484 -0.50195,-2.521484 l -4.826173,-1.806641 -0.37891,-1.246093 3.011723,-4.181641 c 0.614,-0.85 0.0496,-2.206953 -0.98438,-2.376953 l -5.089843,-0.828125 -0.61133,-1.142578 2.13867,-4.695313 c 0.438,-0.956 -0.37573,-2.178672 -1.42773,-2.138672 l -5.16602,0.179688 -0.8164,-0.990235 1.1875,-5.03125 c 0.24,-1.021999 -0.79831,-2.060312 -1.82031,-1.820312 l -5.03125,1.185547 -0.99219,-0.814453 0.18164,-5.166016 c 0.04,-1.046 -1.184673,-1.8636873 -2.138673,-1.429687 l -4.693359,2.140625 -1.142579,-0.613282 -0.830078,-5.0917963 c -0.168,-1.032002 -1.526953,-1.596373 -2.376953,-0.984376 l -4.183594,3.011719 -1.24414,-0.376953 -1.804688,-4.828125 c -0.366,-0.984 -1.809437,-1.267906 -2.523437,-0.503906 l -3.521485,3.779297 -1.279296,-0.125 -2.720704,-4.394532 c -0.275,-0.445 -0.779656,-0.667968 -1.285156,-0.667968 z m -0.166016,9.2128903 c 1.554001,0 3.107422,1.035423 3.107422,3.107422 0,4.143998 -6.216797,4.143998 -6.216796,0 0,-2.071999 1.555374,-3.107422 3.109374,-3.107422 z m 7.212891,5.119141 c 11.048462,2.069501 20.627452,8.891491 26.195317,18.65625 l -3.66602,8.279297 c -0.633,1.433 0.0124,3.109142 1.44141,3.74414 l 7.05859,3.134766 c 0.0549,0.55195 0.098,1.104639 0.12891,1.658203 0.0928,1.660693 0.0774,3.326958 -0.0469,4.986328 0,0 0.0154,0.04806 0.0156,0.04883 -0.54002,7.226444 -3.17161,14.280115 -7.53711,20.064453 -0.45515,0.599191 -0.9248,1.186846 -1.41407,1.757812 -0.0487,0.05681 -0.0955,0.115366 -0.14453,0.171875 -0.575802,0.66404 -1.172125,1.310318 -1.792966,1.933594 l -6.574218,-1.414063 c -1.531,-0.328 -3.037235,0.645688 -3.365235,2.179688 l -1.558593,7.281253 c -10.151738,4.59847 -21.804934,4.54325 -31.91211,-0.15235 l -1.558594,-7.281247 c -0.328,-1.532 -1.833281,-2.506734 -3.363281,-2.177734 l -6.427734,1.378906 c -0.642251,-0.661456 -1.255264,-1.349248 -1.847607,-2.054688 a 29.344931,32.526913 0 0 1 -0.04492,0.01367 c -0.455296,-0.536065 -0.896532,-1.084067 -1.322266,-1.644531 -4.3655,-5.78434 -6.997089,-12.838009 -7.537109,-20.064453 2e-4,-7.7e-4 0.01563,-0.04883 0.01563,-0.04883 -0.1243,-1.65937 -0.139675,-3.325635 -0.04687,-4.986328 0.03091,-0.553564 0.07401,-1.106253 0.128906,-1.658203 l 7.058594,-3.134766 c 1.42901,-0.634998 2.074406,-2.311141 1.441406,-3.744141 l -3.666027,-8.279294 c 3.054244,-5.356438 7.323008,-9.814269 12.373047,-13.097656 a 29.344931,32.526913 0 0 1 0.02148,0.01758 c 4.16747,-2.719516 8.847922,-4.624426 13.800781,-5.560546 l 4.785156,5.021484 c 1.082,1.133 2.873859,1.174794 4.005859,0.0918 z M 16.738475,38.881437 c 1.554,0 3.109374,1.035424 3.109374,3.107422 0,4.144002 -6.216796,4.144 -6.216796,0 0,-2.071999 1.553421,-3.107422 3.107422,-3.107422 z m 73.873042,0.0078 c 1.554,0 3.10743,1.035422 3.10743,3.107421 0,4.144 -6.2168,4.144002 -6.2168,0 0,-2.071998 1.55537,-3.107421 3.10937,-3.107421 z m -60.103511,43.65039 c 1.554,0 3.109375,1.037379 3.109375,3.109379 0,4.144 -6.216797,4.144 -6.216797,0 0,-2.072 1.553422,-3.109379 3.107422,-3.109379 z m 46.052734,0.146489 c 1.554,0 3.107422,1.03542 3.107422,3.10742 0,4.144 -6.216797,4.144 -6.216797,0 0,-2.072 1.555375,-3.10742 3.109375,-3.10742 z"
           style="stroke:none;stroke-width:0.16301784;stroke-miterlimit:4;stroke-dasharray:none;stroke-opacity:1" />
      </g>
    </g>
  </g>
  <g
     inkscape:groupmode="layer"
     id="layer6"
     inkscape:label="Git"
     style="display:inline"
     transform="translate(-3.6161165,27.850404)">
    <g
       transform="matrix(0.72710758,0,0,-0.72710758,171.56901,238.14635)"
       inkscape:label="ink_ext_XXXXXX"
       id="g4830"
       style="fill-rule:nonzero;stroke:#ffffff;stroke-opacity:1">
      <path
         id="path4913"
         style="fill:#f03c2e;fill-opacity:1;stroke:none;stroke-width:0.46625778;stroke-linecap:butt;stroke-linejoin:miter;stroke-miterlimit:4;stroke-dasharray:none;stroke-opacity:1"
         d="m -109.20463,239.42868 c 3.14239,1.06094 6.74547,0.34887 9.249089,-2.15527 2.518723,-2.51975 3.224268,-6.15378 2.136335,-9.30705 l 13.030631,-13.0291 c 3.153266,1.08691 6.788835,0.38431 9.307558,-2.13787 3.518128,-3.5171 3.518128,-9.21864 0,-12.73869 -3.520686,-3.52017 -9.221076,-3.52017 -12.743297,0 -2.646016,2.64858 -3.300643,6.53694 -1.958894,9.79728 l -12.153522,12.15251 v -31.97901 c 0.85701,-0.42473 1.66656,-0.99045 2.381189,-1.70303 3.518127,-3.51774 3.518127,-9.21865 0,-12.74176 -3.518119,-3.51659 -9.222609,-3.51659 -12.738179,0 -3.51813,3.52311 -3.51813,9.22402 0,12.74176 0.86956,0.86853 1.87651,1.52559 2.95088,1.96542 v 32.27479 c -1.07437,0.43983 -2.07889,1.09139 -2.95088,1.96593 -2.66456,2.66367 -3.30576,6.57506 -1.93893,9.84781 l -13.32795,13.32987 5.23715,5.23574 z"
         inkscape:connector-curvature="0"
         sodipodi:nodetypes="ccccccccccccccccccccc" />
    </g>
  </g>
</svg>
