<svg xmlns="http://www.w3.org/2000/svg" xmlns:xlink="http://www.w3.org/1999/xlink" viewBox="0 0 252.003 80.871">
  <defs>
    <g id="a">
      <path d="M85.685 67.399C100.47 42.815 82.562 2.944 49.818 6.995c-29.585 3.657-30.061 34.797-3.988 42.194 22.563 6.408 4.661 20.72 5.184 30.25.526 9.529 19.616 12.986 34.671-12.04"/>
      <circle cx="31.579" cy="70.617" r="12.838"/>
      <circle cx="16.913" cy="43.476" r="8.4"/>
    </g>
  </defs>
  <use width="100%" height="100%" fill="#1b1b1b" transform="translate(-8.513 -5.712)" xlink:href="#a"/>
  <use width="100%" height="100%" fill="#bfbfbf" transform="translate(-7.954 -6.709)" xlink:href="#a"/>
  <path d="M46.854 76.493c-.896-1.454.474-3.068 1.883-2.945 2.242.196 7.123-.027 10.975-2.21 9.622-5.455 24.431-31.702 16.983-48.257-3.334-7.41-4.958-9.532-8.392-13.157-.7-.739-.298-.699.176-.449 1.857.974 5.12 4.75 8.467 10.893 5.655 10.38 5.362 22.72 3.259 30.461-1.465 5.385-6.512 17.568-13.902 22.835-7.406 5.28-16.073 8.307-19.449 2.83M40.149 42.43c-5.041-1.496-11.54-3.58-15.299-8.497-2.772-3.626-4.178-7.582-4.538-9.826-.127-.8-.236-1.468-.005-1.653.106-.085 2.069 4.351 5.003 8.07 2.933 3.718 7.033 5.893 10.449 6.683 3.038.702 9.331 2.246 11.46 4.06 2.189 1.864 2.372 5.892 1.635 6.347-.743.457-2.249-3.268-8.705-5.184M15.984 73.261c9.983 9.25 25.009-3.456 18.393-14.68-.743-1.26-1.708-2.219-1.391-1.254 2.115 6.454.161 11.56-3.485 14.19-3.575 2.58-8.488 3.01-12.422.971-1.155-.599-1.634.274-1.095.773M4.338 43.153c.052.594.864 1.356 2.141 1.706 1.097.301 3.925 1.07 7.558-1.224 3.632-2.292 4.051-8.425 2.4-10.229-.511-.914-1.176-1.579-.647-.12 1.336 3.681-1.26 7.125-3.499 8.72-2.237 1.595-5.076.84-6.235.487-1.158-.354-1.77.047-1.718.66"/>
  <path fill="#fff" d="M50.544 77.203c-.097 1.154 1.228 1.38 3.012 1.113 2.287-.343 4.221-.6 6.853-1.919 3.567-1.788 7.177-4.345 9.82-7.795 7.889-10.292 10.682-22.469 10.252-24.22-.144 1.446-2.048 9.04-6.403 15.885-5.594 8.794-9.65 13.477-19.004 15.748-2.604.632-4.402-.33-4.53 1.188m-20.747-40.02c1.065.904 3.248 2.108 7.543 3.517 5.188 1.701 7.714 3.176 8.772 3.882 1.121.751 1.831 2.426 1.901.938.074-1.489-.844-2.769-2.892-3.449-1.386-.46-3.717-1.555-5.952-1.996a64.981 64.981 0 01-5.775-1.46c-1.098-.337-2.217-.928-3.597-1.432m-5.98 37.978c1.271-.267 8.664-2.182 10.4-8.262.541-1.896.638-1.515.485-.488-.78 5.243-5.735 9.11-9.952 9.254-.856.088-1.979-.285-.933-.504M9.026 43.977c.333-.3 2.019-.177 3.541-.996 1.521-.818 3.328-2.61 3.651-5.16.19-1.497.247-1.12.323-.306-.236 4.237-4.133 6.578-6.361 6.887-.602.083-1.66.032-1.154-.425"/>
  <path fill="#999" d="M75.683 44.72C81.978 26.573 68.805-.83 42.154 2.467c-24.08 2.977-24.469 28.322-3.247 34.344 24.039 3.64 9.564 21.773 7.511 30.918-1.841 8.197 19.426 9.546 29.265-23.01M15.467 70.652c1.507.026 2.419.238 3.946 1.31 3.018 1.253 8.566.46 11.127-2.914 2.562-3.372 2.646-8.019 1.67-10.827-2.387-6.87-12.531-6.75-17.062-1.045-4.902 6.371-1.189 13.451.319 13.476M2.002 38.81c.3.947 1.068 2.328 2.69 2.558 2.165.307 2.608 1.286 5.165.778s4.495-2.603 5.27-4.92c.888-3.208-.441-4.863-2.442-6.342-2.001-1.478-6.402-1.319-9.029 1.075-1.867 1.701-2.386 4.547-1.654 6.851"/>
  <path fill="#f3f3f3" d="M59.211 58.892c-6.512-.805-15.883 13.898-7.047 12.176 8.835-1.72-8.836 1.722 0 0 4.247-.63 7.766-2.13 10.915-5.725 4.107-4.687 10.242-14.81 12.017-21.35 1.494-5.516.743-14.06-.798-6.033-1.58 8.24-8.574 21.738-15.087 20.932M25.257 71.143c1.677-.439 6.812-2.528 5.847-9.994-.488-3.78-2.55 4.693-6.37 5.961-5.786 1.92-5.136 5.515.523 4.033M10.505 40.93c1.965-.514 4.563-3.19 3.273-5.235-1.591-2.518-6.025-.363-6.175 2.441-.15 2.805.82 3.34 2.902 2.794"/>
  <path fill="#010101" d="M93.598 33.863c2.68-1.18 5.527-1.771 8.261-1.771 2.624 0 4.298.644 5.245 1.985 2.009-1.341 4.745-1.985 6.866-1.985 6.363 0 6.585 2.576 6.585 10.143v16.743c0 .75.113.75-3.069.75V41.913c0-5.473-.112-7.137-3.737-7.137-1.619 0-3.295.374-5.08 1.555v22.648c0 .75.113.75-3.07.75V41.913c0-5.26 0-7.191-3.795-7.191-1.619 0-3.237.321-5.135 1.234v23.023c0 .75.11.75-3.069.75V33.864m41.957-1.771c-4.742 0-9.988 1.341-9.988 15.67 0 11.055 3.849 12.771 9.153 12.771 4.072 0 7.589-1.341 7.589-1.985 0-.805-.111-2.04-.39-2.738-1.732 1.18-4.187 1.824-6.922 1.824-3.74 0-6.25-1.072-6.307-9.39 2.457 0 8.71-.053 13.34-.967.391-1.771.557-4.347.557-6.6 0-5.366-2.176-8.585-7.032-8.585m-.279 2.683c3.35 0 4.243 2.199 4.298 6.493 0 1.125-.055 2.467-.224 3.755-3.126.752-8.428.752-10.66.752.391-9.766 3.74-11 6.586-11m12.169-.322c2.622-1.717 5.022-2.361 7.477-2.361 2.735 0 4.019.75 4.019 1.664 0 .537-.168 1.448-.447 1.985-.782-.43-1.672-.804-3.127-.804-1.784 0-3.458.481-4.798 1.662v22.379c0 .753.056.753-3.124.753V34.453m28.176-.59c0-.7-2.343-1.771-4.687-1.771-4.524 0-10.048 1.555-10.048 14.81 0 12.557 3.35 13.685 9.209 13.685 2.9 0 5.526-1.556 5.526-2.414 0-.483-.11-1.236-.392-1.88-1.173.858-2.958 1.664-4.855 1.664-4.017 0-6.362-1.125-6.362-10.894 0-10.787 3.85-12.288 7.199-12.288 1.897 0 2.958.536 4.018 1.234.281-.644.392-1.556.392-2.146m21.379 24.954c-2.458 1.235-5.693 1.718-8.483 1.718-7.144 0-8.205-3.004-8.205-10.143V33.596c0-.698-.055-.698 3.126-.698v17.817c0 5.368.782 7.193 4.967 7.193 1.618 0 3.85-.323 5.526-1.288V33.597c0-.697-.113-.697 3.069-.697v25.917m6.365-24.364c2.622-1.717 5.022-2.361 7.477-2.361 2.735 0 4.019.75 4.019 1.664 0 .537-.168 1.448-.447 1.985-.782-.43-1.674-.804-3.126-.804-1.785 0-3.46.481-4.799 1.662v22.379c0 .753.056.753-3.124.753V34.453m18.662-1.557c-2.458 0-3.182 0-3.182 1.45V59.73c3.126 0 3.182 0 3.182-.751V32.896m-3.293-9.443c0 1.77.558 2.413 1.672 2.467 1.284 0 1.9-.912 1.9-2.523.055-1.662-.392-2.413-1.676-2.413-1.227 0-1.84.911-1.896 2.469m8.588 11c0-.59.11-.913.334-1.073 1.06-.59 5.137-1.288 9.769-1.288 3.516 0 5.747 1.664 5.747 6.493v3.487c0 9.553-.279 16.69-.279 16.69-1.284.697-3.684 1.771-7.591 1.771-4.019.054-8.036-.32-8.036-8.264 0-7.566 4.13-8.746 8.26-8.746 1.562 0 3.404.16 4.633.644v-4.992c0-3.487-1.785-4.24-3.908-4.24-2.845 0-6.806.537-8.538 1.341-.336-.588-.391-1.501-.391-1.823m12.835 11.915c-1.06-.377-2.566-.537-3.627-.537-3.181 0-6.084.644-6.084 6.547 0 5.526 2.4 5.581 5.245 5.581 1.787 0 3.574-.483 4.187-1.127 0 0 .28-6.44.28-10.464m11.843 12.61c0 .75.055.75-3.071.75V21.736c0-1.45.613-1.45 3.07-1.45v38.693"/>
</svg>
