<svg width="20" height="20" viewBox="0 0 20 20" xmlns="http://www.w3.org/2000/svg">
  <path fill="#000" stroke="none" stroke-width=".532" d="M10 15.81c-6.083 0-8.833-5.36-8.948-5.589a.494.494 0 0 1 0-.442c.115-.228 2.865-5.59 8.948-5.59s8.833 5.362 8.948 5.59c.07.14.07.303 0 .442-.115.228-2.865 5.59-8.948 5.59zM2.06 10c.575.974 3.146 4.822 7.94 4.822 4.794 0 7.365-3.848 7.94-4.822-.575-.974-3.146-4.822-7.94-4.822-4.794 0-7.365 3.848-7.94 4.822z"/>
  <path fill="#000" stroke="none" stroke-width=".532" d="M10 14.747A4.753 4.753 0 0 1 5.253 10 4.753 4.753 0 0 1 10 5.253 4.753 4.753 0 0 1 14.747 10 4.753 4.753 0 0 1 10 14.747zm0-8.505A3.763 3.763 0 0 0 6.242 10 3.763 3.763 0 0 0 10 13.758 3.763 3.763 0 0 0 13.758 10 3.763 3.763 0 0 0 10 6.242z"/>
  <path fill="#000" stroke="none" stroke-width=".189" d="M10 7.537c-.19 0-.379.019-.55.057.247.19.417.473.417.814 0 .569-.454 1.024-1.023 1.024-.436 0-.815-.285-.947-.683-.228.36-.36.796-.36 1.251A2.458 2.458 0 0 0 10 12.463 2.458 2.458 0 0 0 12.463 10 2.458 2.458 0 0 0 10 7.537z" class="st0" clip-rule="evenodd"/>
</svg>