<svg xmlns="http://www.w3.org/2000/svg" viewBox="0 0 20 20">
  <path d="M10.4 9.02L9.233 7.869l.014-.013a8.043 8.043 0 001.703-2.998h1.345v-.92H9.082v-.919h-.918v.918H4.95v.914h5.128a7.25 7.25 0 01-1.455 2.46 7.24 7.24 0 01-1.06-1.537h-.919a8.063 8.063 0 001.368 2.093l-2.335 2.307.65.65 2.296-2.296 1.427 1.428zm2.584-2.33h-.918L10 12.2h.918l.517-1.377h2.18l.517 1.377h.918zM11.78 9.906l.746-1.99.746 1.99z"/>
  <path d="M6 18.855v-4.71H1v-13h18v13h-8.29zm-4-5.71h5v3.29l3.29-3.29H18v-11H2z"/>
</svg>