<svg xmlns="http://www.w3.org/2000/svg" viewBox="0 0 20 20">
  <path d="M18.455 13.997H15.5v.546H19V2.36H1v12.182h9.35v-.546H1.545V2.907h16.91z"/>
  <path d="M3.5 5.679h4.25v.545H3.5zM3.5 8.179h4.25v.545H3.5zM3.5 10.679h4.25v.545H3.5zM16.09 9.906a3.185 3.185 0 00-3.18-3.182 3.185 3.185 0 00-3.183 3.182c0 .598.166 1.157.454 1.636l-.063 6.097 2.791-1.61 2.79 1.61-.062-6.097a3.162 3.162 0 00.454-1.636zM12.91 7.27a2.64 2.64 0 012.635 2.636 2.64 2.64 0 01-2.636 2.637 2.64 2.64 0 01-2.636-2.637 2.64 2.64 0 012.636-2.636zm0 8.15l-2.233 1.299V12.17a3.172 3.172 0 004.464 0v4.548z"/>
</svg>