<svg xmlns="http://www.w3.org/2000/svg" viewBox="0 0 20 20">
  <path fill="none" stroke="#000" stroke-width="1.1" d="M17.51 6.997l-.808 9.94c-.049.564-.555.993-1.118.939l-3.299-.318"/>
  <path fill="none" stroke="#000" stroke-width="1.1" d="M17.42 7.485l-4.751 10.04c-.24.513-.86.738-1.372.5l-3.31-1.544"/>
  <path fill="none" stroke="#000" stroke-width="1.1" d="M17.492 3.09V7.1c0 .24-.1.48-.29.67l-8.82 8.81c-.4.4-1.06.4-1.46 0l-4.13-4.13c-.4-.4-.4-1.06 0-1.46l8.81-8.81c.2-.2.47-.3.73-.3h3.85c.33 0 .67.13.92.38.24.23.37.52.39.83z"/>
  <circle cx="13.892" cy="5.38" r="1"/>
</svg>