<svg xmlns="http://www.w3.org/2000/svg" viewBox="0 0 20 20">
  <path fill="none" stroke="#000" stroke-width=".75" d="M14.291 16.132v2.327H1.541V1.21h12.75v1.354m0 2.048v3.373M3.5 8.625H8"/>
  <path stroke="#000" stroke-width=".3" d="M17.034 15.9h-5.999a.436.436 0 01-.436-.435v-.6h6.87v.6c0 .24-.195.435-.435.435zm.435-1.486h-5.421l4.325-4.325 1.096 1.097zm-6.87 0v-.623l1.696-1.695.717.717-1.601 1.601zm6.87-3.864l-.938-.938a.231.231 0 00-.318 0l-2.883 2.884-.877-.877a.224.224 0 00-.317 0l-1.537 1.537V8.76c0-.283.23-.512.513-.513h5.845c.283 0 .512.23.512.513zm.45-1.79a.963.963 0 00-.962-.962h-5.845a.963.963 0 00-.962.962v6.705c0 .488.396.884.885.885h5.999a.886.886 0 00.885-.885V8.76z"/>
  <path fill="none" stroke="#000" stroke-width=".593" d="M18.151 2.776l-7.687 3.566-2.06-.056L9.74 4.69l7.656-3.533a.89.89 0 011.186.432.902.902 0 01-.432 1.186zM17.189 3.22l-.756-1.613"/>
  <path fill="none" stroke="#000" stroke-width=".75" d="M3.5 6.625H7M3.5 12.625H8M3.5 10.625H8"/>
</svg>